<svg width="600" height="600" viewBox="0 0 600 600" fill="none" xmlns="http://www.w3.org/2000/svg">
<rect width="600" height="600" fill="white"/>
<path d="M315.356 39C345.142 39 360.035 39 373.326 43.4708C384.128 47.1042 394.096 52.8561 402.645 60.3894C413.165 69.6589 420.611 82.5501 435.504 108.332L451.006 135.168C465.899 160.95 473.345 173.841 476.117 187.581C478.37 198.748 478.37 210.252 476.117 221.419C473.345 235.159 465.899 248.05 451.006 273.832L435.504 300.668C420.611 326.45 413.165 339.341 402.645 348.611C394.096 356.144 384.128 361.896 373.326 365.529C360.035 370 345.142 370 315.356 370H284.353C254.567 370 239.674 370 226.383 365.529C215.581 361.896 205.613 356.144 197.064 348.611C186.544 339.341 179.098 326.45 164.205 300.668L148.703 273.832C133.81 248.05 126.364 235.159 123.592 221.419C121.339 210.252 121.339 198.748 123.592 187.581C126.364 173.841 133.81 160.95 148.703 135.168L164.205 108.332C179.098 82.5501 186.544 69.6589 197.064 60.3894C205.613 52.8561 215.581 47.1042 226.383 43.4708C239.674 39 254.567 39 284.353 39L315.356 39Z" fill="#060BF0"/>
<path d="M313.218 125.81C308.628 125.81 304.906 129.531 304.906 134.122C304.906 138.712 308.628 142.433 313.218 142.433H355.971C345.563 158.035 327.67 167.808 305.815 170.462C282.564 173.287 255.36 167.917 229.949 153.254C225.973 150.96 220.888 152.322 218.592 156.297C216.296 160.272 217.658 165.354 221.634 167.648C249.865 183.94 280.661 190.26 307.818 186.961C329.606 184.315 349.393 175.388 363.203 160.129V198.248C363.203 202.838 366.924 206.559 371.515 206.559C376.105 206.559 379.826 202.838 379.826 198.248V145.214C379.826 134.497 371.139 125.81 360.422 125.81H313.218Z" fill="white"/>
<path d="M292.399 268.966C292.399 273.556 288.677 277.278 284.087 277.278H236.883C226.166 277.278 217.479 268.59 217.479 257.874V204.84C217.479 200.249 221.2 196.528 225.791 196.528C230.381 196.528 234.102 200.249 234.102 204.84V242.958C247.912 227.7 267.699 218.773 289.488 216.126C316.644 212.827 347.44 219.148 375.671 235.439C379.647 237.733 381.009 242.816 378.713 246.79C376.417 250.765 371.332 252.128 367.356 249.833C341.945 235.17 314.741 229.801 291.49 232.625C269.635 235.28 251.742 245.052 241.334 260.654H284.087C288.677 260.654 292.399 264.375 292.399 268.966Z" fill="white"/>
<rect x="233.289" y="381" width="133.421" height="65" rx="17.1053" fill="#011B40"/>
<path d="M256.15 425.617C258.913 425.617 260.755 424.033 261.513 420.917L265.901 403.805C266.009 403.277 266.28 402.96 266.767 402.96C267.309 402.96 267.58 403.277 267.743 403.805L272.076 420.917C272.835 424.033 274.676 425.617 277.439 425.617C280.093 425.617 282.314 424.033 283.073 420.864L288.111 399.052H283.127L278.414 419.861C278.252 420.494 277.981 420.811 277.493 420.811C276.952 420.811 276.681 420.494 276.518 419.966L272.239 403.066C271.426 399.897 269.638 398.418 266.822 398.418C264.005 398.418 262.163 399.95 261.35 403.119L257.017 419.966C256.908 420.442 256.583 420.811 256.15 420.811C255.554 420.811 255.337 420.494 255.175 419.861L250.3 399.052H245.262L250.462 420.864C251.22 424.033 253.496 425.617 256.15 425.617Z" fill="white"/>
<path d="M292.164 396.471C294.114 396.471 295.631 394.94 295.631 393.038C295.631 391.137 294.114 389.553 292.164 389.553C290.214 389.553 288.643 391.137 288.643 393.038C288.643 394.94 290.214 396.471 292.164 396.471ZM289.509 399.052V424.931H294.872V399.052H289.509Z" fill="white"/>
<path d="M310.705 437.447C319.155 437.447 325.331 431.585 325.331 422.607V411.939C325.331 404.228 319.21 398.418 311.192 398.418C303.121 398.418 297.054 404.492 297.054 411.886C297.054 419.491 303.013 425.3 310.542 425.3C314.984 425.3 318.235 423.294 319.968 420.6V422.66C319.968 428.733 316.176 432.641 310.597 432.641C306.75 432.641 303.825 430.846 302.254 428.047L297.758 430.423C300.196 435.018 304.963 437.447 310.705 437.447ZM311.138 420.389C306.317 420.389 302.363 416.586 302.363 411.833C302.363 407.08 306.317 403.383 311.138 403.383C316.014 403.383 319.914 407.08 319.914 411.833C319.914 416.586 316.014 420.389 311.138 420.389Z" fill="white"/>
<path d="M340.651 425.564C348.614 425.564 354.735 419.438 354.735 411.939C354.735 404.545 348.668 398.418 340.651 398.418C332.688 398.418 326.458 404.492 326.458 411.939C326.458 419.438 332.634 425.564 340.651 425.564ZM340.651 420.6C335.667 420.6 331.821 416.692 331.821 411.991C331.821 407.238 335.667 403.33 340.651 403.33C345.581 403.33 349.373 407.238 349.373 411.991C349.373 416.692 345.581 420.6 340.651 420.6Z" fill="white"/>
<path d="M177.839 534.918C189.006 534.918 198.809 528.465 198.809 518.042C198.809 495.335 162.452 507.619 162.452 489.875C162.452 482.554 169.773 477.839 177.466 477.839C184.167 477.839 190.123 480.073 193.721 486.649L197.444 484.54C193.349 477.219 186.028 473.62 177.342 473.62C167.043 473.62 157.985 480.197 157.985 489.875C157.985 512.334 194.342 499.802 194.342 518.042C194.342 526.108 186.649 530.699 177.715 530.699C170.021 530.699 163.569 527.597 159.722 520.028L156 522.137C160.343 530.699 168.532 534.918 177.839 534.918Z" fill="#324866"/>
<path d="M227.447 535.29C231.417 535.29 234.768 532.684 236.008 527.473L247.176 481.81C247.92 478.708 249.906 476.971 252.015 476.971C254.249 476.971 256.358 478.708 257.103 481.81L268.146 527.473C269.387 532.684 272.613 535.29 276.708 535.29C280.802 535.29 284.277 532.56 285.518 527.1L297.554 474.241H293.335L281.547 526.232C280.802 529.458 278.941 531.195 276.708 531.195C274.598 531.195 272.861 529.582 272.117 526.604L261.073 481.065C259.708 475.606 256.234 473 252.139 473C248.045 473 244.57 475.606 243.205 481.065L232.038 526.604C231.293 529.582 229.432 531.195 227.447 531.195C225.213 531.195 223.352 529.458 222.607 526.232L210.695 474.241H206.477L218.513 527.1C219.754 532.436 223.228 535.29 227.447 535.29Z" fill="#324866"/>
<path d="M333.753 535.166C346.161 535.166 356.336 527.969 360.927 517.546V534.049H365.146V504.021C365.146 486.649 351.373 473 334.125 473C316.381 473 303.104 487.021 303.104 504.021C303.104 521.144 316.505 535.166 333.753 535.166ZM334.125 530.947C319.359 530.947 307.571 518.787 307.571 504.021C307.571 489.379 319.359 477.219 334.125 477.219C348.891 477.219 360.803 489.379 360.803 504.021C360.803 518.787 348.891 530.947 334.125 530.947Z" fill="#324866"/>
<path d="M386.583 561.471L386.707 518.539C391.547 528.465 401.597 535.29 413.509 535.29C430.881 535.29 444.282 521.268 444.282 504.021C444.282 487.021 431.005 473 413.385 473C396.138 473 382.24 486.649 382.24 504.021V561.471H386.583ZM413.385 531.071C398.495 531.071 386.707 518.787 386.707 504.021C386.707 489.379 398.495 477.219 413.385 477.219C428.151 477.219 439.939 489.379 439.939 504.021C439.939 518.787 428.151 531.071 413.385 531.071Z" fill="#324866"/>
</svg>
