<svg width="645" height="147" viewBox="0 0 645 147" fill="none" xmlns="http://www.w3.org/2000/svg">
<rect width="645" height="147" fill="white"/>
<path d="M395.716 96.9229C404.864 96.9229 412.895 91.6369 412.895 83.0978C412.895 64.4949 383.11 74.5588 383.11 60.0221C383.11 54.0245 389.108 50.1616 395.411 50.1616C400.9 50.1616 405.779 51.9914 408.727 57.3791L411.777 55.651C408.422 49.6533 402.425 46.7053 395.309 46.7053C386.872 46.7053 379.451 52.093 379.451 60.0221C379.451 78.4217 409.236 68.1545 409.236 83.0978C409.236 89.7054 402.933 93.4667 395.614 93.4667C389.311 93.4667 384.025 90.9253 380.874 84.7243L377.824 86.4525C381.382 93.4667 388.091 96.9229 395.716 96.9229Z" fill="#324866"/>
<path d="M436.357 97.2279C439.61 97.2279 442.355 95.0932 443.371 90.8236L452.52 53.4145C453.13 50.8732 454.757 49.45 456.485 49.45C458.314 49.45 460.043 50.8732 460.653 53.4145L469.7 90.8236C470.716 95.0932 473.359 97.2279 476.714 97.2279C480.069 97.2279 482.915 94.9915 483.932 90.5187L493.792 47.2136H490.336L480.679 89.8071C480.069 92.4501 478.544 93.8733 476.714 93.8733C474.986 93.8733 473.563 92.5518 472.953 90.112L463.905 52.8046C462.787 48.3318 459.941 46.197 456.586 46.197C453.232 46.197 450.385 48.3318 449.267 52.8046L440.118 90.112C439.508 92.5518 437.983 93.8733 436.357 93.8733C434.527 93.8733 433.002 92.4501 432.392 89.8071L422.633 47.2136H419.177L429.038 90.5187C430.054 94.8898 432.901 97.2279 436.357 97.2279Z" fill="#324866"/>
<path d="M523.448 97.1263C533.614 97.1263 541.95 91.2303 545.711 82.6912V96.2114H549.167V71.6108C549.167 57.3791 537.883 46.197 523.753 46.197C509.217 46.197 498.34 57.6841 498.34 71.6108C498.34 85.6392 509.318 97.1263 523.448 97.1263ZM523.753 93.67C511.656 93.67 501.999 83.7078 501.999 71.6108C501.999 59.6155 511.656 49.6533 523.753 49.6533C535.85 49.6533 545.609 59.6155 545.609 71.6108C545.609 83.7078 535.85 93.67 523.753 93.67Z" fill="#324866"/>
<path d="M566.73 118.677L566.831 83.5045C570.796 91.6369 579.03 97.2279 588.789 97.2279C603.021 97.2279 613.999 85.7409 613.999 71.6108C613.999 57.6841 603.122 46.197 588.687 46.197C574.557 46.197 563.172 57.3791 563.172 71.6108V118.677H566.73ZM588.687 93.7716C576.489 93.7716 566.831 83.7078 566.831 71.6108C566.831 59.6155 576.489 49.6533 588.687 49.6533C600.784 49.6533 610.441 59.6155 610.441 71.6108C610.441 83.7078 600.784 93.7716 588.687 93.7716Z" fill="#324866"/>
<path d="M185.019 95.7673C189.88 95.7673 193.121 92.9658 194.456 87.4563L202.177 57.2008C202.367 56.267 202.844 55.7067 203.702 55.7067C204.655 55.7067 205.132 56.267 205.418 57.2008L213.043 87.4563C214.378 92.9658 217.619 95.7673 222.48 95.7673C227.151 95.7673 231.059 92.9658 232.393 87.363L241.258 48.7965H232.489L224.196 85.5887C223.91 86.7093 223.433 87.2696 222.575 87.2696C221.622 87.2696 221.145 86.7093 220.859 85.7755L213.329 55.8934C211.899 50.2906 208.754 47.6759 203.797 47.6759C198.84 47.6759 195.599 50.3839 194.17 55.9868L186.544 85.7755C186.353 86.6159 185.781 87.2696 185.019 87.2696C183.97 87.2696 183.589 86.7093 183.303 85.5887L174.724 48.7965H165.859L175.01 87.363C176.345 92.9658 180.348 95.7673 185.019 95.7673Z" fill="#011B40"/>
<path d="M248.39 44.233C251.822 44.233 254.491 41.5249 254.491 38.1632C254.491 34.8014 251.822 32 248.39 32C244.959 32 242.194 34.8014 242.194 38.1632C242.194 41.5249 244.959 44.233 248.39 44.233ZM243.719 48.7965V94.5533H253.156V48.7965H243.719Z" fill="#011B40"/>
<path d="M281.016 116.685C295.886 116.685 306.752 106.319 306.752 90.4445V71.5815C306.752 57.9478 295.981 47.6759 281.874 47.6759C267.671 47.6759 256.995 58.4147 256.995 71.4881C256.995 84.935 267.48 95.207 280.73 95.207C288.546 95.207 294.265 91.6585 297.316 86.896V90.5379C297.316 101.277 290.643 108.187 280.825 108.187C274.057 108.187 268.91 105.012 266.146 100.063L258.234 104.265C262.524 112.389 270.912 116.685 281.016 116.685ZM281.778 86.5225C273.295 86.5225 266.336 79.7991 266.336 71.3947C266.336 62.9904 273.295 56.4537 281.778 56.4537C290.357 56.4537 297.22 62.9904 297.22 71.3947C297.22 79.7991 290.357 86.5225 281.778 86.5225Z" fill="#011B40"/>
<path d="M333.71 95.6739C347.723 95.6739 358.494 84.8417 358.494 71.5815C358.494 58.5081 347.818 47.6759 333.71 47.6759C319.698 47.6759 308.736 58.4147 308.736 71.5815C308.736 84.8417 319.603 95.6739 333.71 95.6739ZM333.71 86.896C324.941 86.896 318.173 79.9858 318.173 71.6749C318.173 63.2706 324.941 56.3604 333.71 56.3604C342.385 56.3604 349.057 63.2706 349.057 71.6749C349.057 79.9858 342.385 86.896 333.71 86.896Z" fill="#011B40"/>
<path d="M86.1744 15.8523C96.6712 15.8523 101.92 15.8523 106.604 17.4278C110.41 18.7083 113.923 20.7353 116.936 23.3901C120.643 26.6567 123.267 31.1997 128.516 40.2856L133.978 49.7425C139.227 58.8284 141.851 63.3713 142.828 68.2135C143.622 72.1487 143.622 76.2027 142.828 80.138C141.851 84.9801 139.227 89.5231 133.978 98.609L128.516 108.066C123.267 117.152 120.643 121.695 116.936 124.961C113.923 127.616 110.41 129.643 106.604 130.924C101.92 132.499 96.6712 132.499 86.1744 132.499H75.2489C64.7521 132.499 59.5036 132.499 54.8196 130.924C51.0129 129.643 47.5002 127.616 44.4874 124.961C40.7803 121.695 38.1561 117.152 32.9076 108.066L27.4449 98.609C22.1965 89.5231 19.5723 84.9801 18.5954 80.138C17.8015 76.2027 17.8015 72.1487 18.5954 68.2135C19.5723 63.3713 22.1965 58.8284 27.4449 49.7424L32.9076 40.2856C38.1561 31.1997 40.7803 26.6567 44.4874 23.3901C47.5002 20.7353 51.0129 18.7083 54.8196 17.4278C59.5036 15.8523 64.7521 15.8523 75.2489 15.8523L86.1744 15.8523Z" fill="#060BF0"/>
<path d="M84.7629 49.8306C83.3504 49.8306 82.2053 50.9756 82.2053 52.3881C82.2053 53.8006 83.3504 54.9457 84.7629 54.9457H97.9199C94.7175 59.7465 89.2116 62.7535 82.4869 63.5703C75.3323 64.4394 66.9616 62.7873 59.1426 58.2753C57.9192 57.5693 56.3547 57.9885 55.6482 59.2116C54.9416 60.4347 55.3607 61.9985 56.5841 62.7045C65.271 67.7173 74.7468 69.6622 83.103 68.6471C89.8063 67.8328 95.8942 65.0867 100.143 60.3929V72.1198C100.143 73.5323 101.288 74.6774 102.701 74.6774C104.113 74.6774 105.258 73.5323 105.258 72.1198V55.8012C105.258 52.5037 102.585 49.8306 99.2877 49.8306H84.7629Z" fill="white"/>
<path d="M78.3538 93.8802C78.3538 95.2927 77.2087 96.4377 75.7962 96.4377H61.2715C57.9739 96.4377 55.3008 93.7646 55.3008 90.4671V74.1485C55.3008 72.736 56.4458 71.591 57.8583 71.591C59.2708 71.591 60.4159 72.736 60.4159 74.1485V85.8795C64.6651 81.1831 70.7547 78.4355 77.46 77.621C85.8162 76.6059 95.2921 78.5508 103.979 83.5636C105.202 84.2696 105.621 85.8334 104.915 87.0565C104.208 88.2796 102.644 88.6988 101.42 87.9928C93.6014 83.4808 85.2307 81.8286 78.0761 82.6977C71.3513 83.5146 65.8453 86.5217 62.6429 91.3227H75.7962C77.2087 91.3227 78.3538 92.4677 78.3538 93.8802Z" fill="white"/>
</svg>
