<svg width="600" height="600" viewBox="0 0 600 600" fill="none" xmlns="http://www.w3.org/2000/svg">
<rect width="600" height="600" fill="white"/>
<circle cx="300.5" cy="195.5" r="156.5" fill="#060BF0"/>
<path d="M311.742 120C307.151 120 303.43 123.721 303.43 128.312C303.43 132.902 307.151 136.624 311.742 136.624H354.494C344.087 152.226 326.193 161.998 304.339 164.653C281.087 167.477 253.883 162.108 228.472 147.444C224.496 145.15 219.412 146.512 217.116 150.487C214.82 154.462 216.181 159.544 220.157 161.839C248.389 178.13 279.184 184.45 306.341 181.152C328.129 178.505 347.917 169.578 361.726 154.319V192.438C361.726 197.028 365.448 200.749 370.038 200.749C374.628 200.749 378.35 197.028 378.35 192.438V139.404C378.35 128.688 369.662 120 358.946 120H311.742Z" fill="white"/>
<path d="M290.922 263.156C290.922 267.746 287.201 271.468 282.61 271.468H235.406C224.69 271.468 216.002 262.78 216.002 252.064V199.03C216.002 194.44 219.724 190.718 224.314 190.718C228.904 190.718 232.626 194.44 232.626 199.03V237.148C246.435 221.89 266.223 212.963 288.011 210.316C315.168 207.017 345.963 213.338 374.195 229.629C378.171 231.923 379.532 237.006 377.236 240.981C374.94 244.956 369.856 246.318 365.88 244.024C340.469 229.36 313.265 223.991 290.013 226.815C268.159 229.47 250.265 239.242 239.858 254.844H282.61C287.201 254.844 290.922 258.566 290.922 263.156Z" fill="white"/>
<rect x="233.289" y="381" width="133.421" height="65" rx="17.1053" fill="#011B40"/>
<path d="M256.15 425.617C258.913 425.617 260.755 424.033 261.513 420.917L265.901 403.805C266.009 403.277 266.28 402.96 266.767 402.96C267.309 402.96 267.58 403.277 267.743 403.805L272.076 420.917C272.835 424.033 274.676 425.617 277.439 425.617C280.093 425.617 282.314 424.033 283.073 420.864L288.111 399.052H283.127L278.414 419.861C278.252 420.494 277.981 420.811 277.493 420.811C276.952 420.811 276.681 420.494 276.518 419.966L272.239 403.066C271.426 399.897 269.638 398.418 266.822 398.418C264.005 398.418 262.163 399.95 261.35 403.119L257.017 419.966C256.908 420.442 256.583 420.811 256.15 420.811C255.554 420.811 255.337 420.494 255.175 419.861L250.3 399.052H245.262L250.462 420.864C251.22 424.033 253.496 425.617 256.15 425.617Z" fill="white"/>
<path d="M292.164 396.471C294.114 396.471 295.631 394.94 295.631 393.038C295.631 391.137 294.114 389.553 292.164 389.553C290.214 389.553 288.643 391.137 288.643 393.038C288.643 394.94 290.214 396.471 292.164 396.471ZM289.509 399.052V424.931H294.872V399.052H289.509Z" fill="white"/>
<path d="M310.705 437.447C319.155 437.447 325.331 431.585 325.331 422.607V411.939C325.331 404.228 319.21 398.418 311.192 398.418C303.121 398.418 297.054 404.492 297.054 411.886C297.054 419.491 303.013 425.3 310.542 425.3C314.984 425.3 318.235 423.294 319.968 420.6V422.66C319.968 428.733 316.176 432.641 310.597 432.641C306.75 432.641 303.825 430.846 302.254 428.047L297.758 430.423C300.196 435.018 304.963 437.447 310.705 437.447ZM311.138 420.389C306.317 420.389 302.363 416.586 302.363 411.833C302.363 407.08 306.317 403.383 311.138 403.383C316.014 403.383 319.914 407.08 319.914 411.833C319.914 416.586 316.014 420.389 311.138 420.389Z" fill="white"/>
<path d="M340.651 425.564C348.614 425.564 354.735 419.438 354.735 411.939C354.735 404.545 348.668 398.418 340.651 398.418C332.688 398.418 326.458 404.492 326.458 411.939C326.458 419.438 332.634 425.564 340.651 425.564ZM340.651 420.6C335.667 420.6 331.821 416.692 331.821 411.991C331.821 407.238 335.667 403.33 340.651 403.33C345.581 403.33 349.373 407.238 349.373 411.991C349.373 416.692 345.581 420.6 340.651 420.6Z" fill="white"/>
<path d="M177.839 524.918C189.006 524.918 198.809 518.465 198.809 508.042C198.809 485.335 162.452 497.619 162.452 479.875C162.452 472.554 169.773 467.839 177.466 467.839C184.167 467.839 190.123 470.073 193.721 476.649L197.444 474.54C193.349 467.219 186.028 463.62 177.342 463.62C167.043 463.62 157.985 470.197 157.985 479.875C157.985 502.334 194.342 489.802 194.342 508.042C194.342 516.108 186.649 520.699 177.715 520.699C170.021 520.699 163.569 517.597 159.722 510.028L156 512.137C160.343 520.699 168.532 524.918 177.839 524.918Z" fill="#324866"/>
<path d="M227.447 525.29C231.417 525.29 234.768 522.684 236.008 517.473L247.176 471.81C247.92 468.708 249.906 466.971 252.015 466.971C254.249 466.971 256.358 468.708 257.103 471.81L268.146 517.473C269.387 522.684 272.613 525.29 276.708 525.29C280.802 525.29 284.277 522.56 285.518 517.1L297.554 464.241H293.335L281.547 516.232C280.802 519.458 278.941 521.195 276.708 521.195C274.598 521.195 272.861 519.582 272.117 516.604L261.073 471.065C259.708 465.606 256.234 463 252.139 463C248.045 463 244.57 465.606 243.205 471.065L232.038 516.604C231.293 519.582 229.432 521.195 227.447 521.195C225.213 521.195 223.352 519.458 222.607 516.232L210.695 464.241H206.477L218.513 517.1C219.754 522.436 223.228 525.29 227.447 525.29Z" fill="#324866"/>
<path d="M333.753 525.166C346.161 525.166 356.336 517.969 360.927 507.546V524.049H365.146V494.021C365.146 476.649 351.373 463 334.125 463C316.381 463 303.104 477.021 303.104 494.021C303.104 511.144 316.505 525.166 333.753 525.166ZM334.125 520.947C319.359 520.947 307.571 508.787 307.571 494.021C307.571 479.379 319.359 467.219 334.125 467.219C348.891 467.219 360.803 479.379 360.803 494.021C360.803 508.787 348.891 520.947 334.125 520.947Z" fill="#324866"/>
<path d="M386.583 551.471L386.707 508.539C391.547 518.465 401.597 525.29 413.509 525.29C430.881 525.29 444.282 511.268 444.282 494.021C444.282 477.021 431.005 463 413.385 463C396.138 463 382.24 476.649 382.24 494.021V551.471H386.583ZM413.385 521.071C398.495 521.071 386.707 508.787 386.707 494.021C386.707 479.379 398.495 467.219 413.385 467.219C428.151 467.219 439.939 479.379 439.939 494.021C439.939 508.787 428.151 521.071 413.385 521.071Z" fill="#324866"/>
</svg>
