<svg width="80" height="80" viewBox="0 0 80 80" fill="none" xmlns="http://www.w3.org/2000/svg">
<g clip-path="url(#clip0_121_12043)">
<rect width="80" height="80" fill="white"/>
<rect width="80" height="80" rx="19" fill="#060BF0"/>
<path d="M43.9707 20C42.7746 20 41.8049 20.9697 41.8049 22.1658C41.8049 23.3619 42.7746 24.3316 43.9707 24.3316H55.1108C52.3988 28.397 47.7364 30.9433 42.0418 31.6351C35.9831 32.371 28.8946 30.9719 22.2733 27.1511C21.2373 26.5533 19.9124 26.9082 19.3141 27.944C18.7158 28.9797 19.0707 30.304 20.1067 30.9019C27.4629 35.1468 35.4873 36.7938 42.5635 35.9342C48.2408 35.2445 53.3969 32.9184 56.9951 28.9426V38.875C56.9951 40.0711 57.9648 41.0408 59.1609 41.0408C60.3571 41.0408 61.3267 40.0711 61.3267 38.875V25.0561C61.3267 22.2637 59.063 20 56.2706 20H43.9707Z" fill="white"/>
<path d="M38.5458 57.302C38.5458 58.4981 37.5761 59.4678 36.38 59.4678H24.0801C21.2877 59.4678 19.024 57.2041 19.024 54.4117V40.5928C19.024 39.3966 19.9937 38.427 21.1898 38.427C22.3859 38.427 23.3556 39.3966 23.3556 40.5928V50.5252C26.9538 46.5493 32.1099 44.2232 37.7872 43.5336C44.8635 42.674 52.8878 44.321 60.244 48.5659C61.28 49.1638 61.6349 50.488 61.0366 51.5238C60.4383 52.5595 59.1134 52.9145 58.0774 52.3167C51.4561 48.4958 44.3676 47.0967 38.3089 47.8327C32.6143 48.5244 27.9519 51.0708 25.24 55.1362H36.38C37.5761 55.1362 38.5458 56.1059 38.5458 57.302Z" fill="white"/>
</g>
<defs>
<clipPath id="clip0_121_12043">
<rect width="80" height="80" fill="white"/>
</clipPath>
</defs>
</svg>
